<?xml version="1.0"?>
<svg width="64" height="80" xmlns="http://www.w3.org/2000/svg" xmlns:svg="http://www.w3.org/2000/svg">
 <g class="layer">
  <title>Layer 1</title>
  <g id="svg_1">
   <g id="svg_2">
    <g id="svg_3">
     <path d="m60,21.73a1,0.97 0 0 1 -1,-0.97l0,-4.01a1,0.97 0 0 0 -1,-0.97l-52,0a1,0.97 0 0 0 -1,0.97l0,4.01a1,0.97 0 0 1 -2,0l0,-4.01a3,2.91 0 0 1 3,-2.91l52,0a3,2.91 0 0 1 3,2.91l0,4.01a1,0.97 0 0 1 -1,0.97z" id="svg_4"/>
    </g>
    <g id="svg_5">
     <path d="m63,29.34l-9.71,0a1,0.97 0 0 1 0,-1.94l8.71,0l0,-2.87a3.02,2.93 0 0 0 -0.89,-2.08a3.06,2.96 0 0 0 -2.15,-0.86l-53.92,0a3.06,2.96 0 0 0 -2.15,0.86a3.02,2.93 0 0 0 -0.89,2.08l0,2.87l7.7,0a1,0.97 0 0 1 0,1.94l-8.7,0a1,0.97 0 0 1 -1,-0.97l0,-3.84a5.01,4.85 0 0 1 1.48,-3.45a5.08,4.92 0 0 1 3.56,-1.43l53.92,0a5.08,4.92 0 0 1 3.56,1.43a5.01,4.85 0 0 1 1.48,3.45l0,3.84a1,0.97 0 0 1 -1,0.97z" id="svg_6"/>
    </g>
    <g id="svg_7">
     <path d="m55,71a0.94,0.91 0 0 1 -0.16,-0.01l-18.86,-2.89l-26.87,2.89a1,0.97 0 0 1 -1.11,-0.96l0,-16.47a1,0.97 0 0 1 0.02,-0.17l1.97,-10.53l-1.99,-22.15a1,0.97 0 0 1 1,-1.06l46,0a1,0.97 0 0 1 0.98,1.17l-2.94,13.29l3.9,10.39a0.99,0.96 0 0 1 0.06,0.37l-1,25.19a1,0.97 0 0 1 -1,0.93zm-45,-17.35l0,15.3l25.89,-2.79a0.94,0.91 0 0 1 0.27,0.01l17.88,2.74l0.95,-23.91l-3.93,-10.48a0.99,0.96 0 0 1 -0.04,-0.53l2.74,-12.39l-43.67,0l1.91,21.23a0.97,0.94 0 0 1 -0.02,0.26l-1.98,10.57z" id="svg_8"/>
    </g>
    <g id="svg_9">
     <path d="m51,66.16a1,0.97 0 0 1 -0.13,-0.01l-14.89,-1.93l-22.89,1.94a0.98,0.95 0 0 1 -0.77,-0.25a1,0.97 0 0 1 -0.32,-0.72l0,-11.63a1,0.97 0 0 1 0.02,-0.17l1.97,-10.52l-1.98,-18.27a1,0.97 0 0 1 0.99,-1.07l37,0a1,0.97 0 0 1 0.98,1.16l-1.95,9.44l3.92,11.37a0.99,0.96 0 0 1 0.05,0.36l-1,19.38a1,0.97 0 0 1 -1,0.92zm-37,-12.51l0,10.48l21.91,-1.85a0.91,0.88 0 0 1 0.22,0.01l13.93,1.79l0.93,-18.14l-3.94,-11.45a0.99,0.96 0 0 1 -0.03,-0.5l1.76,-8.53l-34.67,0l1.88,17.34a0.95,0.92 0 0 1 -0.01,0.27l-1.98,10.57z" id="svg_10"/>
    </g>
    <g id="svg_11">
     <path d="m29.2,44.09a1.01,0.98 0 0 1 -0.5,-0.13l-5.2,-2.91a1,0.97 0 0 1 -0.36,-1.33l3.5,-5.87a1,0.97 0 0 1 1.36,-0.36l5.2,2.91a1,0.97 0 0 1 0.37,1.33l-3.5,5.87a1,0.97 0 0 1 -0.61,0.46a1.01,0.98 0 0 1 -0.26,0.03zm-3.83,-4.23l3.46,1.94l2.5,-4.19l-3.46,-1.94l-2.5,4.19z" id="svg_12"/>
    </g>
    <g id="svg_13">
     <path d="m35.2,53.78a1.01,0.98 0 0 1 -0.5,-0.13l-5.2,-2.91a1,0.97 0 0 1 -0.36,-1.33l3.5,-5.87a1,0.97 0 0 1 1.36,-0.36l5.2,2.91a1,0.97 0 0 1 0.37,1.33l-3.5,5.87a1,0.97 0 0 1 -0.61,0.46a1.01,0.98 0 0 1 -0.26,0.03zm-3.83,-4.23l3.46,1.94l2.5,-4.19l-3.46,-1.94l-2.5,4.19z" id="svg_14"/>
    </g>
    <g id="svg_15">
     <path d="m34.86,57.74c-3.7,0 -7.97,-3.4 -9.65,-5.52c-1.03,-1.3 -0.6,-2.69 -0.26,-3.82c0.28,-0.92 0.43,-1.51 0.18,-1.97a7.84,7.6 0 0 0 -2.14,-1.71c-1.81,-1.18 -3.86,-2.52 -3.99,-4.66c-0.19,-3.17 2.87,-9.4 6.72,-10.52c3.96,-1.15 10.32,3.14 12.05,5.15c1.12,1.29 0.28,2.84 -0.32,3.96c-0.4,0.74 -0.85,1.57 -0.6,1.95a6.25,6.05 0 0 0 2.5,1.22c2.01,0.71 4.51,1.58 4.65,3.93c0.19,3.33 -3.71,10.69 -7.72,11.8a5.15,4.99 0 0 1 -1.42,0.18zm-7.66,-26.47a3.15,3.05 0 0 0 -0.91,0.13c-2.77,0.8 -5.44,6.13 -5.29,8.54c0.07,1.18 1.68,2.24 3.11,3.17a8.46,8.2 0 0 1 2.77,2.39a4.47,4.33 0 0 1 -0.01,3.44c-0.31,1.01 -0.46,1.61 -0.08,2.09c1.62,2.04 6.11,5.44 8.94,4.66c2.96,-0.82 6.42,-7.27 6.27,-9.82c-0.06,-1.01 -1.42,-1.56 -3.33,-2.23c-1.46,-0.51 -2.85,-1 -3.51,-2c-0.87,-1.33 -0.1,-2.74 0.51,-3.88c0.49,-0.9 0.81,-1.55 0.57,-1.83c-1.38,-1.6 -6.08,-4.66 -9.04,-4.66z" id="svg_16"/>
    </g>
    <g id="svg_17">
     <path d="m26,15.78l-17,0a1,0.97 0 0 1 -1,-0.97l0,-2.91a3,2.91 0 0 1 3,-2.91l13,0a3,2.91 0 0 1 3,2.91l0,2.91a1,0.97 0 0 1 -1,0.97zm-16,-1.94l15,0l0,-1.94a1,0.97 0 0 0 -1,-0.97l-13,0a1,0.97 0 0 0 -1,0.97l0,1.94z" id="svg_18"/>
    </g>
    <g id="svg_19">
     <path d="m19,56.47a1,0.97 0 0 1 -0.64,-1.71l6.57,-5.3a1,0.97 0 1 1 1.28,1.48l-6.57,5.31a1,0.97 0 0 1 -0.64,0.22z" id="svg_20"/>
    </g>
    <g id="svg_21">
     <path d="m21.22,54.68a1,0.97 0 0 1 -0.55,-0.16l-3.22,-2.08a1,0.97 0 0 1 1.1,-1.61l3.23,2.08a1,0.97 0 0 1 -0.56,1.77z" id="svg_22"/>
    </g>
    <g id="svg_23">
     <path d="m37.01,42.91a1,0.97 0 0 1 -0.55,-1.77l5.98,-3.88a1,0.97 0 0 1 1.12,1.61l-5.99,3.88a1,0.97 0 0 1 -0.56,0.16z" id="svg_24"/>
    </g>
    <g id="svg_25">
     <path d="m34.85,34.42a1,0.97 0 0 1 -0.85,-1.46l3.14,-5.08a1,0.97 0 1 1 1.72,0.99l-3.15,5.09a1,0.97 0 0 1 -0.86,0.47z" id="svg_26"/>
    </g>
    <g id="svg_27">
     <path d="m45.17,58.41a1,0.97 0 0 1 -0.77,-0.35l-4.47,-5.19a1,0.97 0 0 1 1.53,-1.25l4.48,5.2a1,0.97 0 0 1 -0.77,1.59z" id="svg_28"/>
    </g>
    <g id="svg_29">
     <path d="m22.37,34.46a0.99,0.96 0 0 1 -0.59,-0.19l-4.38,-3.18a1,0.97 0 1 1 1.2,-1.55l4.37,3.18a1,0.97 0 0 1 -0.6,1.74z" id="svg_30"/>
    </g>
    <g id="svg_31">
     <path d="m42,31.28l-5.2,0a1,0.97 0 0 1 0,-1.94l5.2,0a1,0.97 0 0 1 0,1.94z" id="svg_32"/>
    </g>
    <g id="svg_33">
     <path d="m30,60.34a1,0.97 0 0 1 -0.83,-1.5l2.18,-3.18a1,0.97 0 1 1 1.66,1.08l-2.18,3.17a1,0.97 0 0 1 -0.83,0.44z" id="svg_34"/>
    </g>
   </g>
  </g>
 </g>
</svg>